<?xml version="1.0" encoding="UTF-8"?>
<svg version="1.1" xmlns="http://www.w3.org/2000/svg" width="187" height="147">
<path d="M0 0 C1.66666667 1.33333333 3.33333333 2.66666667 5 4 C6.36125 4.5259375 6.36125 4.5259375 7.75 5.0625 C8.4925 5.371875 9.235 5.68125 10 6 C10.495 7.485 10.495 7.485 11 9 C11.86625 9.1546875 11.86625 9.1546875 12.75 9.3125 C16.38776193 10.42403837 17.77539749 12.97206881 20 16 C20 16.66 20 17.32 20 18 C20.99 18 21.98 18 23 18 C26.12059818 21.21045834 27.52758868 25.331591 29.125 29.4375 C29.38925781 30.09298828 29.65351563 30.74847656 29.92578125 31.42382812 C31.3076579 34.92060737 32.41273115 38.28301788 33 42 C33.66 42 34.32 42 35 42 C35.33 42.66 35.66 43.32 36 44 C37.74043341 44.72244406 39.48098805 45.44460038 41.22265625 46.1640625 C46.50628345 48.64910914 47.81311539 52.89726925 50 58 C52.04044964 60.37791979 52.04044964 60.37791979 54 62 C53.81824219 62.58265625 53.63648438 63.1653125 53.44921875 63.765625 C52.02650677 68.40585485 50.77663146 73.00581487 49.75 77.75 C46.45476156 91.05109266 40.18810332 100.44686568 29.25 108.5 C24.12933949 112.38613795 22.83348593 115.73551343 21.25 121.9375 C19.41508336 126.43304576 16.33972734 129.53280215 13 133 C12.57178955 133.51755859 12.1435791 134.03511719 11.70239258 134.56835938 C8.90733823 137.75301594 7.60222219 138.89338954 3.29296875 139.65625 C1.92360935 139.63804976 0.55438635 139.58425034 -0.8125 139.5 C-1.545896 139.47591064 -2.27929199 139.45182129 -3.03491211 139.42700195 C-5.36197548 139.33062937 -7.67772113 139.17673724 -10 139 C-10.76505859 138.94247559 -11.53011719 138.88495117 -12.31835938 138.82568359 C-14.57003486 138.63996356 -16.81560583 138.42388338 -19.0625 138.1875 C-19.73966064 138.11789063 -20.41682129 138.04828125 -21.11450195 137.9765625 C-28.52958161 137.05640981 -34.25917412 134.80988114 -40 130 C-41.64991582 129.29289322 -43.31562256 128.62056011 -45 128 C-45.99 127.34 -46.98 126.68 -48 126 C-51.79457333 125.9389379 -55.54602854 126.13343336 -59.3359375 126.3203125 C-63.60158198 125.94740968 -64.90617741 124.83063282 -68 122 C-70.32873375 121.31744011 -72.66182791 120.64949225 -75 120 C-77.17901931 118.34659893 -77.9032441 117.42764633 -78.51171875 114.73828125 C-78.59873047 113.53751953 -78.59873047 113.53751953 -78.6875 112.3125 C-78.75324219 111.50425781 -78.81898437 110.69601563 -78.88671875 109.86328125 C-78.94279297 108.94095703 -78.94279297 108.94095703 -79 108 C-79.66 108 -80.32 108 -81 108 C-86.08681961 94.07937311 -86.99607766 79.78163816 -82.734375 65.46875 C-81.7975952 62.31957536 -81.3702362 59.25807853 -81 56 C-81.66 56 -82.32 56 -83 56 C-86.58684984 49.98380963 -85.76563855 41.92159715 -84.125 35.3125 C-81.69131245 28.95014542 -75.77589664 23.95234871 -69.82421875 20.875 C-68.22098483 20.23768962 -66.61114609 19.61703467 -65 19 C-64.67 18.01 -64.34 17.02 -64 16 C-57.3501101 11.43239886 -48.45298147 11.03433174 -40.66503906 10.21484375 C-33.2185686 9.34494184 -27.64179157 7.41695825 -22.0625 2.3125 C-18.51149929 -0.36886788 -16.42766369 -0.63999095 -12.10546875 -0.87890625 C-9.86933697 -0.94187782 -9.86933697 -0.94187782 -7.25 -1.6875 C-4.21893569 -2.10848115 -2.69644347 -1.41563282 0 0 Z M-7 2 C-7.474375 2.845625 -7.94875 3.69125 -8.4375 4.5625 C-11 7 -11 7 -13.26953125 7.109375 C-15.54446693 6.83709923 -17.7608603 6.48323314 -20 6 C-20.34611328 6.84884766 -20.34611328 6.84884766 -20.69921875 7.71484375 C-21.02535156 8.44832031 -21.35148437 9.18179687 -21.6875 9.9375 C-22.00074219 10.66839844 -22.31398437 11.39929688 -22.63671875 12.15234375 C-24 14 -24 14 -26.0703125 14.73046875 C-29.27738789 15.02551969 -32.46829946 15.18410736 -35.68676758 15.28881836 C-51.16854046 15.82235988 -59.86799234 19.63988685 -72 29 C-72.95519531 29.72960937 -73.91039062 30.45921875 -74.89453125 31.2109375 C-76.94292201 32.79158549 -78.97862624 34.38504001 -81 36 C-80.360625 36.7425 -79.72125 37.485 -79.0625 38.25 C-77.21666593 40.7111121 -76.43930826 42.03466926 -76 45 C-77.65 45.66 -79.3 46.32 -81 47 C-80.63348276 50.29865513 -79.89393237 51.09849137 -77.375 53.4375 C-76.59125 54.283125 -75.8075 55.12875 -75 56 C-75.35995711 59.55536585 -76.53909222 62.93149623 -77.51220703 66.36425781 C-82.0684079 83.01238131 -80.7419435 99.75601065 -72.30078125 115.0859375 C-71.87152344 115.71757813 -71.44226563 116.34921875 -71 117 C-66.545 116.505 -66.545 116.505 -62 116 C-61.67 117.65 -61.34 119.3 -61 121 C-57.74765041 121.27877282 -56.27397254 121.16705642 -53.4375 119.4375 C-51 118 -51 118 -48.9375 118.0625 C-47 119 -47 119 -45.25 120.8125 C-42.7246148 123.26773561 -40.3704006 124.36895683 -37.19433594 125.8034668 C-34.97335591 127.01452856 -33.66939852 128.30588708 -31.890625 130.078125 C-25.30107005 135.11151469 -16.39517839 133.89032449 -8.5 133.875 C-6.80205249 133.893146 -5.10413122 133.91395465 -3.40625 133.9375 C0.72950118 133.98909638 4.86394484 134.00444874 9 134 C8.67 130.7 8.34 127.4 8 124 C10.97 124 13.94 124 17 124 C16.48041715 119.62065881 15.94324258 115.31196609 15 111 C15.54914063 110.92265625 16.09828125 110.8453125 16.6640625 110.765625 C19.84843879 109.72191638 21.82239298 107.90934823 24.375 105.75 C25.29023438 104.98171875 26.20546875 104.2134375 27.1484375 103.421875 C28.08945313 102.62265625 29.03046875 101.8234375 30 101 C31.03382813 100.20464844 32.06765625 99.40929687 33.1328125 98.58984375 C42.1633431 90.43283859 45.67409516 75.35437109 49 64 C49 63.34 49 62.68 49 62 C46.69 61.34 44.38 60.68 42 60 C42 57.36 42 54.72 42 52 C38.17679443 50.57741188 35.08718695 49.75957724 31 50 C30.62875 48.824375 30.2575 47.64875 29.875 46.4375 C22.55911074 24.76460739 12.31473549 14.11003257 -7 2 Z " fill="#FFFFFF" transform="translate(113,6)"/>
<path d="M0 0 C7.86576466 1.06330961 14.96994459 4.87601876 19.81640625 11.1640625 C22.24214475 14.92675919 24 18.43749133 24 23 C12.64738641 26.61219523 -8.01856034 24.93674252 -19 21 C-21.43359375 19.2734375 -21.43359375 19.2734375 -23.4375 17.375 C-24.11683594 16.74335937 -24.79617187 16.11171875 -25.49609375 15.4609375 C-25.99238281 14.97882813 -26.48867187 14.49671875 -27 14 C-26.34 13.34 -25.68 12.68 -25 12 C-23.65367349 12.27621335 -22.32200778 12.624255 -21 13 C-18.90352557 13.14678114 -16.80358677 13.24705138 -14.703125 13.31640625 C-13.49785156 13.35830078 -12.29257813 13.40019531 -11.05078125 13.44335938 C-9.16939453 13.50233398 -9.16939453 13.50233398 -7.25 13.5625 C-5.98027344 13.60568359 -4.71054688 13.64886719 -3.40234375 13.69335938 C-0.26833635 13.79939722 2.86574933 13.90146058 6 14 C5.37106359 12.72853671 4.7405469 11.45785504 4.109375 10.1875 C3.75842773 9.47980469 3.40748047 8.77210937 3.04589844 8.04296875 C1.80745266 5.62389446 0.44006352 3.30410163 -1 1 C-0.67 0.67 -0.34 0.34 0 0 Z M12 13 C11.01 14.485 11.01 14.485 10 16 C12.97 16.495 12.97 16.495 16 17 C15.34 15.68 14.68 14.36 14 13 C13.34 13 12.68 13 12 13 Z " fill="#FFFFFF" transform="translate(103,104)"/>
<path d="M0 0 C3.62830159 0.61866727 5.83161479 2.13654864 8.73828125 4.3515625 C10.09276367 5.38216797 10.09276367 5.38216797 11.47460938 6.43359375 C12.41111328 7.15675781 13.34761719 7.87992188 14.3125 8.625 C15.23740234 9.32496094 16.16230469 10.02492188 17.11523438 10.74609375 C34.38123598 23.9747716 34.38123598 23.9747716 36.4609375 34.28515625 C36.70855864 36.1824696 36.86367562 38.09145872 37 40 C36.34 40 35.68 40 35 40 C33.66015625 38.56640625 33.66015625 38.56640625 32.0625 36.5625 C25.62956399 29.01720214 18.10625831 22.95177247 9 19 C8.67 22.63 8.34 26.26 8 30 C6.68 30 5.36 30 4 30 C-0.11344073 25.88655927 -1.79041642 21.53965989 -2.265625 15.78125 C-2.26046875 14.6984375 -2.2553125 13.615625 -2.25 12.5 C-2.25515625 11.4171875 -2.2603125 10.334375 -2.265625 9.21875 C-1.98879794 5.86425744 -1.19052385 3.13693587 0 0 Z M5 10 C2.69328085 12.71549154 2.69328085 12.71549154 3.375 15.1875 C3.58125 15.785625 3.7875 16.38375 4 17 C5.99983534 16.20882096 5.99983534 16.20882096 8 15 C8.33 14.01 8.66 13.02 9 12 C8.67 11.34 8.34 10.68 8 10 C7.01 10 6.02 10 5 10 Z " fill="#FFFFFF" transform="translate(94,15)"/>
<path d="M0 0 C1.76923828 0.01353516 1.76923828 0.01353516 3.57421875 0.02734375 C4.47785156 0.03894531 5.38148438 0.05054688 6.3125 0.0625 C4.64199787 7.49275425 2.13734435 14.61882529 -0.5 21.75 C-0.97856445 23.08550903 -0.97856445 23.08550903 -1.46679688 24.44799805 C-4.824817 33.35387143 -9.3741131 40.19995294 -17.6875 45.0625 C-18.6775 44.7325 -19.6675 44.4025 -20.6875 44.0625 C-20.32398437 43.39347656 -19.96046875 42.72445312 -19.5859375 42.03515625 C-15.0247642 33.32214572 -11.79851474 24.37348028 -8.6875 15.0625 C-10.27073688 15.035307 -11.85411062 15.01601694 -13.4375 15 C-14.31921875 14.98839844 -15.2009375 14.97679688 -16.109375 14.96484375 C-18.4693838 15.05423802 -20.43248524 15.39337179 -22.6875 16.0625 C-22.1777277 11.60199235 -20.8151485 9.27034461 -17.6875 6.0625 C-11.75205344 1.8023811 -7.40988066 -0.07336516 0 0 Z M-6.375 6.5625 C-6.808125 7.0575 -7.24125 7.5525 -7.6875 8.0625 C-6.3675 9.0525 -5.0475 10.0425 -3.6875 11.0625 C-3.0275 10.7325 -2.3675 10.4025 -1.6875 10.0625 C-1.6875 8.4125 -1.6875 6.7625 -1.6875 5.0625 C-4.69009517 4.73031808 -4.69009517 4.73031808 -6.375 6.5625 Z " fill="#FFFFFF" transform="translate(145.6875,59.9375)"/>
<path d="M0 0 C1.27230469 0.00902344 2.54460937 0.01804688 3.85546875 0.02734375 C5.31919922 0.04474609 5.31919922 0.04474609 6.8125 0.0625 C6.8125 0.7225 6.8125 1.3825 6.8125 2.0625 C5.75675781 2.53816406 5.75675781 2.53816406 4.6796875 3.0234375 C-4.02177063 7.13561484 -11.50398362 12.31122886 -19.1875 18.0625 C-18.49610265 21.30641139 -18.49610265 21.30641139 -15.46484375 22.44921875 C-14.36269531 22.87847656 -13.26054688 23.30773437 -12.125 23.75 C-11.02027344 24.18699219 -9.91554688 24.62398437 -8.77734375 25.07421875 C-7.92269531 25.40035156 -7.06804687 25.72648437 -6.1875 26.0625 C-12.78447342 30.46048228 -19.43911133 30.87914322 -27.1875 30.0625 C-31.96166692 28.69661149 -36.06128305 26.8133113 -40.1875 24.0625 C-39.80533121 21.63691135 -39.48754514 20.35464531 -37.70385742 18.61791992 C-37.07326416 18.18068604 -36.4426709 17.74345215 -35.79296875 17.29296875 C-34.73843506 16.55300659 -34.73843506 16.55300659 -33.66259766 15.7980957 C-32.90769043 15.28722412 -32.1527832 14.77635254 -31.375 14.25 C-30.60978027 13.72172607 -29.84456055 13.19345215 -29.05615234 12.64916992 C-10.40462461 -0.09545527 -10.40462461 -0.09545527 0 0 Z M-30.1875 20.0625 C-29.8575 21.0525 -29.5275 22.0425 -29.1875 23.0625 C-26.2175 23.5575 -26.2175 23.5575 -23.1875 24.0625 C-23.5175 23.0725 -23.8475 22.0825 -24.1875 21.0625 C-27.1575 20.5675 -27.1575 20.5675 -30.1875 20.0625 Z " fill="#FFFFFF" transform="translate(75.1875,32.9375)"/>
<path d="M0 0 C2.37293979 2.37293979 2.65160285 3.82551654 3.47265625 7.05078125 C3.86227539 8.56381836 3.86227539 8.56381836 4.25976562 10.10742188 C4.52466797 11.16509766 4.78957031 12.22277344 5.0625 13.3125 C5.33126953 14.35857422 5.60003906 15.40464844 5.87695312 16.48242188 C7.02327567 20.97337628 8.1225042 25.44782968 9 30 C13.91119472 27.49807061 16.37368896 25.97616829 19 21 C19.66 21 20.32 21 21 21 C22.2913343 28.10233867 22.44508011 34.20922469 18.41015625 40.46484375 C16.67811203 42.72419108 14.90605498 44.88593457 13 47 C12.51402344 47.60070312 12.02804688 48.20140625 11.52734375 48.8203125 C10 50 10 50 8 50.1328125 C4.79082126 48.3151136 4.130787 45.20116108 3 41.875 C2.74653809 41.15940918 2.49307617 40.44381836 2.23193359 39.70654297 C-6.49189205 14.56269845 -6.49189205 14.56269845 -3.09375 5.61328125 C-2.15575491 3.6937413 -1.08917326 1.83797987 0 0 Z M6 33 C7.26974972 37.41522109 7.26974972 37.41522109 10 41 C11.54166642 39.62514468 11.54166642 39.62514468 13 38 C13 37.34 13 36.68 13 36 C10.69 35.01 8.38 34.02 6 33 Z " fill="#FFFFFF" transform="translate(48,74)"/>
<path d="M0 0 C6.13524297 2.769251 11.17675195 6.22682905 14.5703125 12.16015625 C17.1384357 20.64830371 11.52447399 31.85176871 8.08203125 39.44140625 C6.00053393 43.1848743 4.07524852 44.70670104 0.5703125 47.16015625 C-2.125 47.796875 -2.125 47.796875 -4.4296875 48.16015625 C-3.72392578 46.74476562 -3.72392578 46.74476562 -3.00390625 45.30078125 C4.67678849 30.74518775 4.67678849 30.74518775 4.50390625 14.9765625 C2.00663866 10.11786196 -1.33989651 6.26627666 -6.4296875 4.16015625 C-8.75464027 3.77266412 -11.08820018 3.43032786 -13.4296875 3.16015625 C-13.4296875 2.50015625 -13.4296875 1.84015625 -13.4296875 1.16015625 C-9.05179852 -1.6416927 -4.87378526 -1.68466854 0 0 Z " fill="#FFFFFF" transform="translate(105.4296875,54.83984375)"/>
<path d="M0 0 C0.99 0.33 1.98 0.66 3 1 C3.7868791 3.87525023 4.4073663 6.63866215 4.9375 9.5625 C6.22744354 16.62537472 7.73371057 23.43677516 12.71875 28.875 C19.99119319 33.46812201 27.83775279 32.82046464 36 31 C34.5039904 34.80802445 32.33936849 36.69424557 29 39 C22.31078888 41.14110732 15.30194745 40.51411279 8.7890625 38.14453125 C3.68139421 34.8769618 1.94069235 29.81975286 0.3125 24.25 C-0.00557617 23.1837439 -0.00557617 23.1837439 -0.33007812 22.09594727 C-2.68257361 13.96889169 -4.13818135 7.77978095 0 0 Z " fill="#FFFFFF" transform="translate(68,62)"/>
<path d="M0 0 C0.70125 0.721875 1.4025 1.44375 2.125 2.1875 C3.0809285 3.12745198 4.03937128 4.06485215 5 5 C5.886875 5.86625 6.77375 6.7325 7.6875 7.625 C15.22252856 13.69972415 25.4191666 13.50789901 34.625 13.6875 C35.81996094 13.72166016 37.01492187 13.75582031 38.24609375 13.79101562 C41.16396851 13.87271612 44.08157218 13.94211753 47 14 C47 16.64 47 19.28 47 22 C16.47846427 22.51153412 16.47846427 22.51153412 4.98046875 12.1328125 C2.11545706 9.0474153 0.09659308 6.44889616 -0.1875 2.1875 C-0.125625 1.465625 -0.06375 0.74375 0 0 Z " fill="#FFFFFF" transform="translate(72,116)"/>
<path d="M0 0 C3.10376221 0.48198144 5.13951416 1.59175796 7.64453125 3.44140625 C8.65555908 4.18753174 8.65555908 4.18753174 9.68701172 4.94873047 C10.38842285 5.48127441 11.08983398 6.01381836 11.8125 6.5625 C12.52937988 7.10535645 13.24625977 7.64821289 13.98486328 8.20751953 C20.90970939 13.54954367 26.68934664 18.29548391 29 27 C29.30078125 30.54296875 29.30078125 30.54296875 29.3125 34.1875 C29.32925781 35.39792969 29.34601563 36.60835937 29.36328125 37.85546875 C29 41 29 41 27.48046875 42.92578125 C26.99191406 43.28027344 26.50335938 43.63476562 26 44 C25.92523438 43.16597656 25.85046875 42.33195312 25.7734375 41.47265625 C24.34656739 29.2603268 19.94231759 23.1099133 10.55224609 15.47045898 C6.53961738 12.31122032 2.41973154 9.54984512 -2 7 C-1.125 1.125 -1.125 1.125 0 0 Z " fill="#FFFFFF" transform="translate(106,12)"/>
<path d="M0 0 C1.21236328 0.01353516 1.21236328 0.01353516 2.44921875 0.02734375 C3.37154297 0.04474609 3.37154297 0.04474609 4.3125 0.0625 C4.3125 1.0525 4.3125 2.0425 4.3125 3.0625 C2.01171875 4.74609375 2.01171875 4.74609375 -1 6.5 C-5.95042501 9.39260128 -8.84785228 11.54355683 -10.6875 17.0625 C-11.10043045 23.11071659 -10.44868572 29.06816248 -9.6875 35.0625 C-14.80905559 32.75235152 -17.68266109 29.16352682 -20.0625 24.1875 C-21.12982706 18.85086472 -20.55906503 14.80563006 -18.125 9.9375 C-13.16240176 4.084179 -7.87843489 -0.11418022 0 0 Z " fill="#FFFFFF" transform="translate(93.6875,47.9375)"/>
<path d="M0 0 C0 3.50722636 -1.20347464 5.26148088 -3.02734375 8.18359375 C-7.85190232 17.19331157 -4.46332199 28.41295131 -1.875 37.5625 C-1.27847996 39.68585752 -0.69196394 41.81206003 -0.1171875 43.94140625 C0.14465332 44.86638916 0.40649414 45.79137207 0.67626953 46.74438477 C0.78310059 47.48873779 0.88993164 48.23309082 1 49 C0.34 49.66 -0.32 50.32 -1 51 C-2.32 51 -3.64 51 -5 51 C-15.85121132 23.18950557 -15.85121132 23.18950557 -10.4375 10.75 C-7.91957548 6.21960794 -4.04444247 3.14131454 0 0 Z " fill="#FFFFFF" transform="translate(48,68)"/>
<path d="M0 0 C1.25 2.109375 1.25 2.109375 2 4 C1.21625 3.835 0.4325 3.67 -0.375 3.5 C-14.71077954 1.5226511 -23.46658991 6.23974862 -35.02368164 14.2902832 C-41.55036819 18.73432038 -41.55036819 18.73432038 -46 18 C-45.70588518 14.65297337 -45.22051205 13.23393806 -42.8828125 10.75390625 C-30.77129246 1.1298797 -15.55611014 -8.98499465 0 0 Z " fill="#FFFFFF" transform="translate(83,28)"/>
<path d="M0 0 C1.32 0 2.64 0 4 0 C5.31904443 3.95713329 4.17394669 6.62133947 2.9375 10.4375 C2.70853027 11.14890137 2.47956055 11.86030273 2.24365234 12.59326172 C-4.17359067 31.87960838 -4.17359067 31.87960838 -13 37 C-17.7130734 39.19024065 -21.88395388 40.8153712 -27 39 C-25.74092409 36.48184818 -24.78525333 36.30739574 -22.25 35.1875 C-14.50336048 31.43867981 -9.95956282 25.05958878 -7.1484375 17.109375 C-6.54865093 15.32579914 -5.95766404 13.53924268 -5.375 11.75 C-4.78394988 9.95137335 -4.18783087 8.15440214 -3.5859375 6.359375 C-3.3286084 5.57014648 -3.0712793 4.78091797 -2.80615234 3.96777344 C-2 2 -2 2 0 0 Z " fill="#FFFFFF" transform="translate(153,69)"/>
<path d="M0 0 C0.74765625 0.23460938 1.4953125 0.46921875 2.265625 0.7109375 C3.015625 2.8359375 3.015625 2.8359375 3.265625 5.7109375 C1.53382241 9.17454269 -0.13775636 11.26347352 -3.234375 13.5859375 C-9.67715219 15.65683017 -16.16316246 15.97398927 -22.296875 12.9609375 C-24.43535663 10.98695446 -26.16349628 9.15452662 -27.734375 6.7109375 C-27.404375 6.0509375 -27.074375 5.3909375 -26.734375 4.7109375 C-25.765 5.2265625 -24.795625 5.7421875 -23.796875 6.2734375 C-19.2961026 8.15178404 -15.36039939 8.33522145 -10.734375 6.7109375 C-8.49066316 4.98686449 -6.57677275 3.18583764 -4.65625 1.109375 C-2.734375 -0.2890625 -2.734375 -0.2890625 0 0 Z " fill="#FFFFFF" transform="translate(104.734375,77.2890625)"/>
<path d="M0 0 C5.37647077 1.00917574 9.13023593 4.16929843 12.9140625 7.953125 C14.58553258 10.73890847 14.77873776 12.26221651 14.4140625 15.453125 C11.14927519 15.06903238 9.55697357 14.57038537 6.9765625 12.453125 C2.08900586 8.87496682 -4.78344316 9.61209745 -10.5859375 9.453125 C-9.25327041 2.27814058 -7.56121751 -0.34481122 0 0 Z " fill="#FFFFFF" transform="translate(94.5859375,59.546875)"/>
<path d="M0 0 C5.01399822 1.34817475 8.62586866 3.67008867 12.625 6.875 C13.18445313 7.30941406 13.74390625 7.74382813 14.3203125 8.19140625 C17.40738813 10.61592555 20.39112828 13.06024699 23 16 C23 16.66 23 17.32 23 18 C19.067919 17.24815154 16.77676838 15.49042146 13.68359375 13.05859375 C11.90817724 11.73385389 11.90817724 11.73385389 9 12 C8.67 13.65 8.34 15.3 8 17 C3.73727671 15.47759883 2.01968966 12.96724754 0 9 C-0.31674074 5.96621759 -0.24296324 3.03704045 0 0 Z " fill="#FFFFFF" transform="translate(104,37)"/>
<path d="M0 0 C0 0.66 0 1.32 0 2 C-2.52542319 3.91210613 -5.16378143 5.60736783 -7.8125 7.34375 C-8.534375 7.8903125 -9.25625 8.436875 -10 9 C-10 9.66 -10 10.32 -10 11 C-8.68 11.66 -7.36 12.32 -6 13 C-6.125 14.875 -6.125 14.875 -7 17 C-11.90402535 19.51181786 -15.78517624 19.12987848 -21 18 C-21.66 17.01 -22.32 16.02 -23 15 C-17.52224448 8.95558011 -8.53333861 0 0 0 Z " fill="#FFFFFF" transform="translate(83,37)"/>
<path d="M0 0 C-5.1141649 23.07610994 -5.1141649 23.07610994 -11 27 C-12 25 -12 25 -11.00390625 21.7421875 C-10.53110016 20.4502948 -10.05028031 19.16131362 -9.5625 17.875 C-9.31951172 17.21628906 -9.07652344 16.55757812 -8.82617188 15.87890625 C-8.22421679 14.25008662 -7.61297588 12.62470425 -7 11 C-8.423125 11.2784375 -8.423125 11.2784375 -9.875 11.5625 C-13 12 -13 12 -15 11 C-13.56314642 5.97101246 -11.05763331 4.04322498 -7 1 C-4.53721199 -0.231394 -2.7204945 -0.07159196 0 0 Z " fill="#FFFFFF" transform="translate(134,76)"/>
<path d="M0 0 C0.66 0 1.32 0 2 0 C2.6708712 1.6232687 3.33657029 3.24867578 4 4.875 C4.556875 6.23238281 4.556875 6.23238281 5.125 7.6171875 C6 10 6 10 6 12 C9.16115776 10.63016497 9.9927092 10.0109362 12 7 C12.66 7 13.32 7 14 7 C14.399443 13.39108805 13.88898042 18.22203915 11 24 C8.890625 24.71875 8.890625 24.71875 7 25 C-0.49040067 7.84641068 -0.49040067 7.84641068 0 0 Z " fill="#FFFFFF" transform="translate(52,75)"/>
<path d="M0 0 C5.66573973 0.23125468 8.40408437 1.67001251 12.6171875 5.4296875 C14 7 14 7 15 10 C12.52657832 11.23671084 10.86140689 11.12931819 8.09765625 11.1328125 C7.12505859 11.13410156 6.15246094 11.13539062 5.15039062 11.13671875 C4.13138672 11.13285156 3.11238281 11.12898438 2.0625 11.125 C1.04736328 11.12886719 0.03222656 11.13273437 -1.01367188 11.13671875 C-2.47450195 11.13478516 -2.47450195 11.13478516 -3.96484375 11.1328125 C-5.30470337 11.13112061 -5.30470337 11.13112061 -6.67163086 11.12939453 C-9 11 -9 11 -12 10 C-12 9.34 -12 8.68 -12 8 C-6.06 7.505 -6.06 7.505 0 7 C0 5.68 0 4.36 0 3 C0 2.01 0 1.02 0 0 Z " fill="#FFFFFF" transform="translate(91,105)"/>
<path d="M0 0 C4.29 0 8.58 0 13 0 C13.33 1.32 13.66 2.64 14 4 C11.8651924 7.32081182 9.84485281 9.83489309 6 11 C3.25 10.625 3.25 10.625 1 10 C0.63720544 8.71073008 0.28503302 7.41846728 -0.0625 6.125 C-0.35833984 5.04605469 -0.35833984 5.04605469 -0.66015625 3.9453125 C-1 2 -1 2 0 0 Z " fill="#FFFFFF" transform="translate(86,72)"/>
<path d="M0 0 C3.68112114 0.66380873 7.14870742 1.600717 10.6875 2.8125 C12.11642578 3.28623047 12.11642578 3.28623047 13.57421875 3.76953125 C16.33404477 5.169443 16.97376309 6.13733914 18 9 C16.4585058 10.5414942 15.01556186 10.20646315 12.875 10.25 C8.12701288 10.16656892 5.02106963 9.5969408 1 7 C0.0625 3.3125 0.0625 3.3125 0 0 Z " fill="#FFFFFF" transform="translate(72,101)"/>
<path d="M0 0 C1.15418833 3.46256498 0.96347296 5.80866156 0.6875 9.4375 C0.56955078 11.13712891 0.56955078 11.13712891 0.44921875 12.87109375 C0.0384724 15.73203138 -0.5255516 17.55061022 -2 20 C-2.66 20 -3.32 20 -4 20 C-7.7852349 8.59923298 -7.7852349 8.59923298 -7 4 C-4.73599988 1.73599988 -3.05224368 1.01741456 0 0 Z " fill="#FFFFFF" transform="translate(63,64)"/>
<path d="M0 0 C4.15721113 2.61034187 7.92219239 5.10747861 11 9 C11.5 12.6875 11.5 12.6875 11 16 C10.01 16.66 9.02 17.32 8 18 C6.87064804 16.58680023 5.74669374 15.16928595 4.625 13.75 C3.99851562 12.96109375 3.37203125 12.1721875 2.7265625 11.359375 C-1.14563107 6.06796117 -1.14563107 6.06796117 -0.625 2.25 C-0.41875 1.5075 -0.2125 0.765 0 0 Z " fill="#FFFFFF" transform="translate(115,50)"/>
<path d="M0 0 C-0.94161787 6.32429916 -2.06738602 10.72506788 -7 15 C-10.8125 15.375 -10.8125 15.375 -14 15 C-13.45673102 10.91118611 -11.30287186 8.78087079 -8.5625 5.8125 C-7.75941406 4.93207031 -6.95632812 4.05164063 -6.12890625 3.14453125 C-3.00728597 0 -3.00728597 0 0 0 Z " fill="#FFFFFF" transform="translate(124,89)"/>
<path d="M0 0 C1.9375 1.5 1.9375 1.5 3 3 C2.67 3.99 2.34 4.98 2 6 C-3.76081841 7.2982126 -9.08739655 8.25706972 -15 8 C-12.58436886 1.2362328 -6.72950593 -0.88880267 0 0 Z " fill="#FFFFFF" transform="translate(91,40)"/>
<path d="M0 0 C0.66 0 1.32 0 2 0 C2 2.97 2 5.94 2 9 C0.68 9.33 -0.64 9.66 -2 10 C-3.39195915 5.82412255 -1.82323219 3.86525224 0 0 Z " fill="#FFFFFF" transform="translate(138,49)"/>
<path d="M0 0 C0.66 0.33 1.32 0.66 2 1 C2.4140625 3.06640625 2.4140625 3.06640625 2.625 5.5625 C2.69976562 6.38878906 2.77453125 7.21507813 2.8515625 8.06640625 C2.90054688 8.70449219 2.94953125 9.34257813 3 10 C1.35 8.68 -0.3 7.36 -2 6 C-1.125 1.125 -1.125 1.125 0 0 Z " fill="#FFFFFF" transform="translate(68,116)"/>
<path d="M0 0 C0.66 0.33 1.32 0.66 2 1 C0.54744301 4.82946843 -1.42895561 6.12050295 -5 8 C-5.33 7.34 -5.66 6.68 -6 6 C-2.25 1.125 -2.25 1.125 0 0 Z " fill="#FFFFFF" transform="translate(44,64)"/>
<path d="M0 0 C-0.33 0.99 -0.66 1.98 -1 3 C-3.31 3.33 -5.62 3.66 -8 4 C-8 3.01 -8 2.02 -8 1 C-5.29120665 -0.35439668 -2.99066732 -0.06501451 0 0 Z " fill="#FFFFFF" transform="translate(133,111)"/>
<path d="M0 0 C2.31 0.66 4.62 1.32 7 2 C7.33 3.32 7.66 4.64 8 6 C4.65750371 5.40312566 2.53563658 4.26396123 0 2 C0 1.34 0 0.68 0 0 Z " fill="#FFFFFF" transform="translate(81,23)"/>
</svg>
